<svg width="31" height="33" viewBox="0 0 31 33" fill="none" xmlns="http://www.w3.org/2000/svg">
<path fill-rule="evenodd" clip-rule="evenodd" d="M0 10.3125C0 8.03433 1.7349 6.1875 3.875 6.1875H18.4062C20.3744 6.1875 21.9999 7.74948 22.2483 9.77247L28.2756 7.49762C29.5568 6.89144 31 7.8898 31 9.38235L31 19.8359C31 21.3284 29.5568 22.3268 28.2756 21.7206L22.2812 19.8359L22.2483 23.2275C21.9999 25.2505 20.3744 26.8125 18.4062 26.8125H3.875C1.7349 26.8125 0 24.9657 0 22.6875V10.3125ZM22.2812 18.1345L29.0625 19.8359V9.38235L22.2812 12.0139L22.2812 18.1345ZM3.875 8.25C2.80495 8.25 1.9375 9.17341 1.9375 10.3125V22.6875C1.9375 23.8266 2.80495 24.75 3.875 24.75H18.4062C19.4763 24.75 20.3438 23.8266 20.3438 22.6875V10.3125C20.3438 9.17341 19.4763 8.25 18.4062 8.25H3.875Z" fill="#F0EEE7"/>
<rect x="9.6875" y="11.647" width="1.9375" height="9.70588" fill="#F0EEE7"/>
<rect x="15.5" y="15.5294" width="1.94118" height="9.6875" transform="rotate(90 15.5 15.5294)" fill="#F0EEE7"/>
</svg>
