<svg width="27" height="25" viewBox="0 0 27 25" fill="none" xmlns="http://www.w3.org/2000/svg">
<path d="M9.25793 16.1926L2.30987 5.51466C0.801463 7.57623 -0.00326984 10.0099 9.98582e-06 12.5C9.98582e-06 13.7849 0.210986 15.0255 0.601943 16.1926H9.25793ZM12.1773 7.19982H25.7211C23.9816 3.77462 20.612 1.19577 16.542 0.324747L12.1773 7.19982ZM7.82949 11.0696L14.8172 0.0609216C14.3792 0.0205244 13.9394 0.000192438 13.4992 0C9.47434 0 5.85785 1.64136 3.38269 4.23732L7.82949 11.0696ZM10.6445 24.6063L14.9184 17.703H1.22998C3.02544 21.319 6.62889 24.0076 10.9631 24.7754L10.6445 24.6063ZM17.7198 8.71027L24.5433 19.6741C26.144 17.5755 27.0023 15.0688 27 12.4995C27.0007 11.2136 26.7861 9.93531 26.3638 8.71027H17.7198ZM19.1107 13.9717L12.3133 24.9481C12.7042 24.9799 13.0995 25 13.4992 25C17.4321 25 20.9774 23.4337 23.4471 20.9399L19.1107 13.9717Z" fill="#0D0D0D"/>
</svg>
