<svg width="45" height="42" viewBox="0 0 45 42" fill="none" xmlns="http://www.w3.org/2000/svg">
<path d="M15.4299 27.2035L3.84978 9.26463C1.33577 12.7281 -0.00544974 16.8166 1.6643e-05 21C1.6643e-05 23.1586 0.351643 25.2428 1.00324 27.2035H15.4299ZM20.2955 12.0957H42.8685C39.9694 6.34136 34.3533 2.0089 27.57 0.545575L20.2955 12.0957ZM13.0491 18.5969L24.6954 0.102348C23.9654 0.034481 23.2323 0.000323296 22.4986 0C15.7906 0 9.76308 2.75748 5.63781 7.1187L13.0491 18.5969ZM17.7408 41.3385L24.864 29.741H2.04996C5.04241 35.816 11.0481 40.3328 18.2719 41.6227L17.7408 41.3385ZM29.533 14.6333L40.9055 33.0526C43.5734 29.5268 45.0039 25.3155 45 20.9992C45.0012 18.8388 44.6435 16.6913 43.9397 14.6333H29.533ZM31.8512 23.4724L20.5221 41.9129C21.1737 41.9662 21.8326 42 22.4986 42C29.0536 42 34.9623 39.3686 39.0785 35.179L31.8512 23.4724Z" fill="#F0EEE7"/>
<rect x="18.6514" y="14.4798" width="7.80169" height="3.79058" fill="#D9D9D9"/>
<rect width="7.68225" height="3.81305" transform="matrix(0.525622 0.850718 -0.854495 0.519459 26.4507 14.4798)" fill="#D9D9D9"/>
<rect width="7.75479" height="3.81283" transform="matrix(0.532249 -0.846588 0.850443 0.526067 14.5229 21.0469)" fill="#D9D9D9"/>
<rect x="26.3604" y="27.584" width="7.80169" height="3.79058" transform="rotate(180 26.3604 27.584)" fill="#D9D9D9"/>
<rect width="7.68225" height="3.81305" transform="matrix(-0.525622 -0.850718 0.854495 -0.519459 18.5608 27.584)" fill="#D9D9D9"/>
<rect width="7.75479" height="3.81283" transform="matrix(-0.532248 0.846588 -0.850443 -0.526067 30.4888 21.0109)" fill="#D9D9D9"/>
</svg>
