<svg width="17" height="17" viewBox="0 0 17 17" fill="none" xmlns="http://www.w3.org/2000/svg">
<path d="M12.476 10.9904C13.3162 9.84651 13.8125 8.43433 13.8125 6.90625C13.8125 3.09203 10.7205 0 6.90625 0C3.09203 0 0 3.09203 0 6.90625C0 10.7205 3.09203 13.8125 6.90625 13.8125C8.43474 13.8125 9.84726 13.316 10.9913 12.4754L10.9904 12.476C11.0217 12.5185 11.0566 12.5592 11.0951 12.5977L15.1862 16.6888C15.6011 17.1037 16.2739 17.1037 16.6888 16.6888C17.1037 16.2739 17.1037 15.6011 16.6888 15.1862L12.5977 11.0951C12.5592 11.0566 12.5185 11.0217 12.476 10.9904ZM12.476 6.90625C12.476 10.1337 10.1337 12.4754 6.90625 12.4754C3.67884 12.4754 1.5 10.1337 1.5 6.90625C1.5 3.67884 3.67884 1.5 6.90625 1.5C10.1337 1.5 12.476 3.67884 12.476 6.90625Z" fill="white"/>
</svg>
